<svg width="23" height="18" fill="none" xmlns="http://www.w3.org/2000/svg"><path opacity=".6" d="M22.142 2.135a9.097 9.097 0 0 1-2.609.715A4.554 4.554 0 0 0 21.53.336a9.069 9.069 0 0 1-2.884 1.102 4.544 4.544 0 0 0-7.74 4.144A12.9 12.9 0 0 1 1.541.835 4.544 4.544 0 0 0 2.948 6.9 4.531 4.531 0 0 1 .89 6.333v.059a4.544 4.544 0 0 0 3.644 4.454c-.669.181-1.37.208-2.051.078a4.545 4.545 0 0 0 4.244 3.154 9.116 9.116 0 0 1-5.643 1.945c-.362 0-.724-.02-1.084-.063A12.849 12.849 0 0 0 6.963 18c8.357 0 12.925-6.922 12.925-12.925 0-.195-.005-.392-.013-.587a9.233 9.233 0 0 0 2.265-2.35l.002-.003Z" fill="#fff"/></svg>