<svg width="27" height="18" fill="none" xmlns="http://www.w3.org/2000/svg"><path opacity=".6" d="M26.422 2.824a3.132 3.132 0 0 0-.861-1.428 3.43 3.43 0 0 0-1.505-.834C21.945.006 13.486.006 13.486.006A86.149 86.149 0 0 0 2.928.534a3.553 3.553 0 0 0-1.504.854c-.416.4-.717.894-.875 1.435A32.706 32.706 0 0 0 .001 9c-.014 2.07.17 4.137.548 6.177a3.18 3.18 0 0 0 .872 1.427c.417.396.936.683 1.507.835 2.14.555 10.558.555 10.558.555 3.53.04 7.06-.136 10.57-.528a3.43 3.43 0 0 0 1.505-.834c.416-.397.711-.89.86-1.428a31.93 31.93 0 0 0 .563-6.178c.03-2.082-.16-4.16-.562-6.203v.001ZM10.796 12.85V5.152l7.038 3.85-7.038 3.848Z" fill="#fff"/></svg>